HIERARCHY
ROOT hip
{
  OFFSET 0 0 0
  CHANNELS 6 Xposition Yposition Zposition Zrotation Yrotation Xrotation
  JOINT abdomen
  {
    OFFSET 0 20.6881 -0.73152
    CHANNELS 3 Zrotation Xrotation Yrotation
    JOINT chest
    {
      OFFSET 0 11.7043 -0.48768
      CHANNELS 3 Zrotation Xrotation Yrotation
      JOINT neck
      {
        OFFSET 0 22.1894 -2.19456
        CHANNELS 3 Zrotation Xrotation Yrotation
        JOINT head
        {
          OFFSET -0.24384 7.07133 1.2192
          CHANNELS 3 Zrotation Xrotation Yrotation
          JOINT leftEye
          {
            OFFSET 4.14528 8.04674 8.04672
            CHANNELS 3 Zrotation Xrotation Yrotation
            End Site
            {
              OFFSET 1 0 0
            }
          }
          JOINT rightEye
          {
            OFFSET -3.6576 8.04674 8.04672
            CHANNELS 3 Zrotation Xrotation Yrotation
            End Site
            {
              OFFSET 1 0 0
            }
          }
        }
      }
      JOINT rCollar
      {
        OFFSET -2.68224 19.2634 -4.8768
        CHANNELS 3 Zrotation Xrotation Yrotation
        JOINT rShldr
        {
          OFFSET -8.77824 -1.95073 1.46304
          CHANNELS 3 Zrotation Xrotation Yrotation
          JOINT rForeArm
          {
            OFFSET -28.1742 -1.7115 0.48768
            CHANNELS 3 Zrotation Xrotation Yrotation
            JOINT rHand
            {
              OFFSET -22.5879 0.773209 7.07136
              CHANNELS 3 Zrotation Xrotation Yrotation
              JOINT rThumb1
              {
                OFFSET -1.2192 -0.487915 3.41376
                CHANNELS 3 Zrotation Xrotation Yrotation
                JOINT rThumb2
                {
                  OFFSET -3.37035 -0.52449 3.41376
                  CHANNELS 3 Zrotation Xrotation Yrotation
                  End Site
                  {
                    OFFSET -1.78271 -1.18214 1.43049
                  }
                }
              }
              JOINT rIndex1
              {
                OFFSET -7.75947 0.938293 5.60832
                CHANNELS 3 Zrotation Xrotation Yrotation
                JOINT rIndex2
                {
                  OFFSET -2.54057 -0.884171 1.56538
                  CHANNELS 3 Zrotation Xrotation Yrotation
                  End Site
                  {
                    OFFSET -1.62519 -0.234802 1.16502
                  }
                }
              }
              JOINT rMid1
              {
                OFFSET -8.24714 1.18213 3.41376
                CHANNELS 3 Zrotation Xrotation Yrotation
                JOINT rMid2
                {
                  OFFSET -3.10165 -0.590103 1.0647
                  CHANNELS 3 Zrotation Xrotation Yrotation
                  End Site
                  {
                    OFFSET -2.48547 -0.328903 0.83742
                  }
                }
              }
              JOINT rRing1
              {
                OFFSET -8.82822 0.546677 1.51678
                CHANNELS 3 Zrotation Xrotation Yrotation
                JOINT rRing2
                {
                  OFFSET -2.60934 -0.819778 -0.0198488
                  CHANNELS 3 Zrotation Xrotation Yrotation
                  End Site
                  {
                    OFFSET -2.33842 -0.294052 0.168128
                  }
                }
              }
              JOINT rPinky1
              {
                OFFSET -8.27202 -0.0477905 -0.4584
                CHANNELS 3 Zrotation Xrotation Yrotation
                JOINT rPinky2
                {
                  OFFSET -1.82734 -0.647385 -0.700984
                  CHANNELS 3 Zrotation Xrotation Yrotation
                  End Site
                  {
                    OFFSET -1.69225 -0.51767 -0.607171
                  }
                }
              }
            }
          }
        }
      }
      JOINT lCollar
      {
        OFFSET 2.68224 19.2634 -4.8768
        CHANNELS 3 Zrotation Xrotation Yrotation
        JOINT lShldr
        {
          OFFSET 8.77824 -1.95073 1.46304
          CHANNELS 3 Zrotation Xrotation Yrotation
          JOINT lForeArm
          {
            OFFSET 28.1742 -1.7115 0.48768
            CHANNELS 3 Zrotation Xrotation Yrotation
            JOINT lHand
            {
              OFFSET 22.5879 0.773209 7.07136
              CHANNELS 3 Zrotation Xrotation Yrotation
              JOINT lThumb1
              {
                OFFSET 1.2192 -0.487915 3.41376
                CHANNELS 3 Zrotation Xrotation Yrotation
                JOINT lThumb2
                {
                  OFFSET 3.37035 -0.52449 3.41376
                  CHANNELS 3 Zrotation Xrotation Yrotation
                  End Site
                  {
                    OFFSET 1.78271 -1.18214 1.43049
                  }
                }
              }
              JOINT lIndex1
              {
                OFFSET 7.75947 0.938293 5.60832
                CHANNELS 3 Zrotation Xrotation Yrotation
                JOINT lIndex2
                {
                  OFFSET 2.54057 -0.884171 1.56538
                  CHANNELS 3 Zrotation Xrotation Yrotation
                  End Site
                  {
                    OFFSET 1.62519 -0.234802 1.16502
                  }
                }
              }
              JOINT lMid1
              {
                OFFSET 8.24714 1.18213 3.41376
                CHANNELS 3 Zrotation Xrotation Yrotation
                JOINT lMid2
                {
                  OFFSET 3.10165 -0.590103 1.0647
                  CHANNELS 3 Zrotation Xrotation Yrotation
                  End Site
                  {
                    OFFSET 2.48547 -0.328903 0.83742
                  }
                }
              }
              JOINT lRing1
              {
                OFFSET 8.82822 0.546677 1.51678
                CHANNELS 3 Zrotation Xrotation Yrotation
                JOINT lRing2
                {
                  OFFSET 2.60934 -0.819778 -0.0198488
                  CHANNELS 3 Zrotation Xrotation Yrotation
                  End Site
                  {
                    OFFSET 2.33842 -0.294052 0.168128
                  }
                }
              }
              JOINT lPinky1
              {
                OFFSET 8.27202 -0.0477905 -0.4584
                CHANNELS 3 Zrotation Xrotation Yrotation
                JOINT lPinky2
                {
                  OFFSET 1.82734 -0.647385 -0.700984
                  CHANNELS 3 Zrotation Xrotation Yrotation
                  End Site
                  {
                    OFFSET 1.69225 -0.51767 -0.607171
                  }
                }
              }
            }
          }
        }
      }
    }
  }
  JOINT rButtock
  {
    OFFSET -8.77824 4.35084 1.2192
    CHANNELS 3 Zrotation Xrotation Yrotation
    JOINT rThigh
    {
      OFFSET 0 -1.70687 -2.19456
      CHANNELS 3 Zrotation Xrotation Yrotation
      JOINT rShin
      {
        OFFSET 0 -36.8199 0.73152
        CHANNELS 3 Zrotation Xrotation Yrotation
        JOINT rFoot
        {
          OFFSET 0.73152 -45.1104 -5.12064
          CHANNELS 3 Zrotation Xrotation Yrotation
          End Site
          {
            OFFSET -1.1221 -3.69964 12.103
          }
        }
      }
    }
  }
  JOINT lButtock
  {
    OFFSET 8.77824 4.35084 1.2192
    CHANNELS 3 Zrotation Xrotation Yrotation
    JOINT lThigh
    {
      OFFSET 0 -1.70687 -2.19456
      CHANNELS 3 Zrotation Xrotation Yrotation
      JOINT lShin
      {
        OFFSET 0 -36.8199 0.73152
        CHANNELS 3 Zrotation Xrotation Yrotation
        JOINT lFoot
        {
          OFFSET -0.73152 -45.1104 -5.12064
          CHANNELS 3 Zrotation Xrotation Yrotation
          End Site
          {
            OFFSET 1.1221 -3.69964 12.103
          }
        }
      }
    }
  }
}
MOTION
Frames:	8
Frame Time:	0.00833333
86.4757 84.8839 -55.1272 0.0 0.0 0.0 -0.194077 -0.000752047 -0.00553943 -0.0535364 -0.00112971 -0.0092745 -6.01742e-15 0.0 2.17421e-17 -1.79838e-14 3.18055e-15 4.81432e-17 -0.0 0.0 0.0 -0.0 0.0 0.0 -2.9335e-15 -3.88251e-19 1.49089e-16 -6.12726e-14 -6.21202e-18 9.93923e-16 -1.07955e-12 3.272e-13 -1.90833e-14 -1.24121e-11 -3.13459e-13 3.18055e-14 -2.92672e-11 2.84117e-14 6.04305e-14 -5.05521e-11 4.77083e-14 9.46215e-14 -2.92615e-11 2.90226e-14 5.08889e-14 7.73091 5.47488 0.417314 -2.92662e-11 2.83268e-14 6.04305e-14 2.90554 0.965183 0.102902 -2.92565e-11 2.8625e-14 5.48646e-14 10.2786 0.731801 0.0259123 -2.92714e-11 2.90226e-14 6.04305e-14 2.22167 -0.733487 -0.20892 -3.03024e-15 0.0 -1.49089e-16 -6.55948e-14 -2.98177e-16 -1.19271e-15 -1.08412e-12 -3.25609e-13 2.22639e-14 -1.24114e-11 3.20366e-13 3.18055e-15 -2.92758e-11 -9.34901e-15 4.45278e-14 -5.05553e-11 -1.90833e-14 9.46215e-14 -2.92834e-11 -7.55382e-15 6.04305e-14 -7.73091 5.47488 -0.417314 -2.92762e-11 -8.84592e-15 4.77083e-14 -2.90554 0.965183 -0.102902 -2.92891e-11 -9.34288e-15 5.1684e-14 -10.2786 0.731801 -0.0259123 -2.92774e-11 -9.93923e-15 4.77083e-14 -2.22167 -0.733487 0.20892 -2.03217e-16 0.0 -3.88251e-19 0.355859 -2.82714 -0.0340696 -0.0066551 -0.431855 -0.0584476 -0.502549 3.25829 0.1238 2.03217e-16 0.0 3.88251e-19 -0.651356 -3.58303 0.052557 0.00445998 0.937456 0.0381201 0.504964 2.64491 -0.111592
83.37 83.3276 -57.1772 1.9961 -51.021 1.8829 -0.200726 1.73305 -0.214114 0.394901 -1.23423 -0.0602942 -2.57626 -1.47747 -0.941082 2.74596 1.58044 -1.10099 -0.0 0.0 0.0 -0.0 0.0 0.0 -5.61389e-15 5.71879e-15 -1.45748e-13 20.8684 6.59012 -0.173174 -4.57277 -2.15298 7.05899 0.00582803 1.71201 0.240232 7.44488e-10 -5.72652e-10 -6.15738e-10 1.28341e-09 -9.92659e-10 -1.07044e-09 7.44494e-10 -5.72651e-10 -6.15748e-10 7.73091 5.47488 0.417314 7.44489e-10 -5.72652e-10 -6.15739e-10 2.90554 0.965183 0.102902 7.44498e-10 -5.72652e-10 -6.15743e-10 10.2786 0.731801 0.0259123 7.44484e-10 -5.72652e-10 -6.15738e-10 2.22167 -0.733487 -0.20892 -5.73236e-15 5.72004e-15 -1.46019e-13 -21.5985 7.32866 0.759859 5.04222 -2.48269 -7.6563 -0.00312114 1.24049 -0.174192 4.60277e-10 -9.54988e-10 2.9466e-11 7.96508e-10 -1.65601e-09 4.83648e-11 4.6027e-10 -9.54987e-10 2.94801e-11 -7.73091 5.47488 -0.417314 4.60277e-10 -9.54987e-10 2.94683e-11 -2.90554 0.965183 -0.102902 4.60267e-10 -9.54988e-10 2.94708e-11 -10.2786 0.731801 -0.0259123 4.60276e-10 -9.54988e-10 2.94657e-11 -2.22167 -0.733487 0.20892 -2.03217e-16 0.0 -3.88251e-19 0.822289 -6.2899 0.0424321 0.012657 8.85126 0.0979024 -0.703918 -1.9876 -1.63482 2.03217e-16 0.0 3.88251e-19 -1.47441 -6.17635 -1.10922 -0.00648685 8.19531 -0.0791701 0.645402 -1.34576 1.27372
83.3684 83.3321 -57.1604 1.9098 -50.7242 1.8862 -0.185185 3.56573 -0.438234 0.864805 -2.53909 -0.115086 -5.35401 -3.03554 -1.93784 5.71421 3.24543 -2.26675 -0.0 0.0 0.0 -0.0 0.0 0.0 -9.64063e-15 1.11924e-14 -3.10977e-13 42.9722 13.5323 -0.349843 -8.82491 -4.31261 14.5384 -0.00379016 3.5507 0.498981 1.63609e-09 -1.22004e-09 -1.31447e-09 2.82063e-09 -2.1149e-09 -2.2852e-09 1.6361e-09 -1.22003e-09 -1.31448e-09 7.73091 5.47488 0.417314 1.63609e-09 -1.22004e-09 -1.31447e-09 2.90554 0.965183 0.102902 1.6361e-09 -1.22004e-09 -1.31448e-09 10.2786 0.731801 0.0259123 1.63609e-09 -1.22004e-09 -1.31447e-09 2.22167 -0.733487 -0.20892 -9.78191e-15 1.11949e-14 -3.11219e-13 -44.645 15.0768 1.59827 9.65659 -4.95846 -15.7939 0.00178358 2.54552 -0.357724 1.02355e-09 -2.02144e-09 7.74211e-11 1.77117e-09 -3.50538e-09 1.28298e-10 1.02354e-09 -2.02144e-09 7.7433e-11 -7.73091 5.47488 -0.417314 1.02355e-09 -2.02144e-09 7.74223e-11 -2.90554 0.965183 -0.102902 1.02354e-09 -2.02144e-09 7.74232e-11 -10.2786 0.731801 -0.0259123 1.02355e-09 -2.02144e-09 7.74169e-11 -2.22167 -0.733487 0.20892 -2.03217e-16 0.0 -3.88251e-19 1.32932 -9.94893 0.118212 -0.024512 18.6629 0.275196 -1.26837 -7.51938 -3.51957 2.03217e-16 0.0 3.88251e-19 -2.45478 -8.91341 -2.3545 0.0153162 15.8695 -0.209515 1.0042 -5.56509 2.7477
83.3684 83.3332 -57.1568 1.8911 -50.6656 1.8873 -0.17602 5.20038 -0.633577 1.28518 -3.70041 -0.162631 -7.87469 -4.42761 -2.83076 8.42051 4.7343 -3.31302 -0.0 0.0 0.0 -0.0 0.0 0.0 -1.09747e-14 1.71571e-14 -4.37541e-13 62.731 19.7696 -0.548412 -12.1596 -6.06763 21.287 -0.0257316 5.13567 0.723278 2.292e-09 -1.71801e-09 -1.84734e-09 3.95133e-09 -2.97807e-09 -3.21151e-09 2.29201e-09 -1.71801e-09 -1.84735e-09 7.73091 5.47488 0.417314 2.292e-09 -1.71801e-09 -1.84734e-09 2.90554 0.965183 0.102902 2.29201e-09 -1.71801e-09 -1.84734e-09 10.2786 0.731801 0.0259123 2.292e-09 -1.71801e-09 -1.84733e-09 2.22167 -0.733487 -0.20892 -1.11366e-14 1.71601e-14 -4.37758e-13 -65.4172 21.9699 2.4381 13.1833 -6.91725 -23.1252 0.013305 3.72132 -0.523557 1.43938e-09 -2.86494e-09 8.83091e-11 2.49064e-09 -4.968e-09 1.44905e-10 1.43938e-09 -2.86494e-09 8.83193e-11 -7.73091 5.47488 -0.417314 1.43938e-09 -2.86494e-09 8.83095e-11 -2.90554 0.965183 -0.102902 1.43938e-09 -2.86494e-09 8.8309e-11 -10.2786 0.731801 -0.0259123 1.43938e-09 -2.86494e-09 8.83016e-11 -2.22167 -0.733487 0.20892 -2.03217e-16 0.0 -3.88251e-19 1.78354 -13.2153 0.199879 -0.115584 27.4168 0.458613 -2.08863 -12.4306 -5.27267 2.03217e-16 0.0 3.88251e-19 -3.44158 -11.346 -3.48137 0.066811 22.7107 -0.337481 1.51035 -9.30469 4.09704
83.3348 83.337 -57.1344 2.0661 -50.8362 1.7187 -0.210533 6.34026 -0.754703 1.58654 -4.5029 -0.191765 -9.65008 -5.4092 -3.45701 10.3439 5.78944 -4.05113 -0.0 0.0 0.0 -0.0 0.0 0.0 -5.57692e-15 2.43496e-14 -4.67442e-13 76.5547 24.245 -0.780534 -14.2731 -7.17698 26.1053 -0.0456554 6.08675 0.858702 2.35867e-09 -1.84248e-09 -1.96552e-09 4.06569e-09 -3.19357e-09 -3.41667e-09 2.35867e-09 -1.84247e-09 -1.96553e-09 7.73091 5.47488 0.417314 2.35867e-09 -1.84248e-09 -1.96552e-09 2.90554 0.965183 0.102902 2.35868e-09 -1.84248e-09 -1.96552e-09 10.2786 0.731801 0.0259123 2.35867e-09 -1.84248e-09 -1.96551e-09 2.22167 -0.733487 -0.20892 -5.75419e-15 2.43515e-14 -4.67641e-13 -80.061 26.74 3.13445 15.3402 -8.08836 -28.2917 0.02573 4.57415 -0.644238 1.48662e-09 -3.15108e-09 6.52968e-12 2.57208e-09 -5.4637e-09 3.19725e-12 1.48661e-09 -3.15108e-09 6.53922e-12 -7.73091 5.47488 -0.417314 1.48662e-09 -3.15108e-09 6.52968e-12 -2.90554 0.965183 -0.102902 1.48662e-09 -3.15108e-09 6.52809e-12 -10.2786 0.731801 -0.0259123 1.48662e-09 -3.15108e-09 6.52014e-12 -2.22167 -0.733487 0.20892 -2.03217e-16 0.0 -3.88251e-19 2.08934 -15.5002 0.293134 -0.219385 33.5267 0.611123 -2.85245 -15.8393 -6.56869 2.03217e-16 0.0 3.88251e-19 -4.21514 -13.0328 -4.27046 0.123279 27.47 -0.436903 1.97096 -11.8676 5.07745
83.3122 83.3393 -57.1115 2.274 -50.9545 1.5458 -0.338106 6.789 -0.770705 1.7308 -4.80202 -0.195033 -10.3367 -5.82799 -3.7039 11.1184 6.24626 -4.34808 -0.0 0.0 0.0 -0.0 0.0 0.0 1.59844e-14 4.19223e-14 -3.74614e-13 82.0284 26.3074 -1.05374 -15.1357 -7.64602 28.1905 -0.0479163 6.09455 0.859943 1.48036e-09 -1.44455e-09 -1.45983e-09 2.54983e-09 -2.50283e-09 -2.53646e-09 1.48037e-09 -1.44454e-09 -1.45984e-09 7.73091 5.47488 0.417314 1.48036e-09 -1.44455e-09 -1.45983e-09 2.90554 0.965183 0.102902 1.48037e-09 -1.44455e-09 -1.45983e-09 10.2786 0.731801 0.0259123 1.48036e-09 -1.44455e-09 -1.45982e-09 2.22167 -0.733487 -0.20892 1.57966e-14 4.19201e-14 -3.74803e-13 -85.9089 28.5195 3.53136 16.1355 -8.50664 -30.3567 0.0327103 4.99781 -0.704315 9.78231e-10 -2.73857e-09 -3.07498e-10 1.6914e-09 -4.74695e-09 -5.37295e-10 9.78226e-10 -2.73857e-09 -3.07488e-10 -7.73091 5.47488 -0.417314 9.78233e-10 -2.73857e-09 -3.07498e-10 -2.90554 0.965183 -0.102902 9.78232e-10 -2.73857e-09 -3.075e-10 -10.2786 0.731801 -0.0259123 9.78234e-10 -2.73857e-09 -3.07508e-10 -2.22167 -0.733487 0.20892 -2.03217e-16 0.0 -3.88251e-19 2.16847 -16.4134 0.404161 -0.27131 35.9366 0.679593 -3.2117 -17.1827 -7.12627 2.03217e-16 0.0 3.88251e-19 -4.59702 -13.688 -4.55098 0.150717 29.3145 -0.478351 2.17766 -12.7864 5.49873
83.3013 83.3368 -57.1041 2.3811 -51.0094 1.5031 -0.533597 6.74404 -0.711201 1.76288 -4.74164 -0.179771 -10.2347 -5.84532 -3.67838 11.0581 6.2769 -4.32805 -0.0 0.0 0.0 -0.0 0.0 0.0 4.87702e-14 6.64972e-14 -1.93523e-13 81.5205 26.6434 -1.3467 -15.2064 -7.73398 28.3067 -0.0370638 5.43126 0.765639 -6.72136e-11 -6.73456e-10 -5.10584e-10 -1.20596e-10 -1.16476e-09 -8.8461e-10 -6.72116e-11 -6.73452e-10 -5.10591e-10 7.73091 5.47488 0.417314 -6.72138e-11 -6.73452e-10 -5.1058e-10 2.90554 0.965183 0.102902 -6.7207e-11 -6.73453e-10 -5.10582e-10 10.2786 0.731801 0.0259123 -6.72155e-11 -6.73452e-10 -5.10575e-10 2.22167 -0.733487 -0.20892 4.85754e-14 6.64886e-14 -1.93706e-13 -85.4044 28.1684 3.67298 16.0762 -8.48622 -30.1868 0.0340156 5.11385 -0.720746 7.48591e-11 -1.82314e-09 -7.82536e-10 1.26761e-10 -3.15743e-09 -1.3542e-09 7.48535e-11 -1.82313e-09 -7.82523e-10 -7.73091 5.47488 -0.417314 7.48609e-11 -1.82314e-09 -7.82535e-10 -2.90554 0.965183 -0.102902 7.48594e-11 -1.82314e-09 -7.82538e-10 -10.2786 0.731801 -0.0259123 7.48619e-11 -1.82313e-09 -7.82545e-10 -2.22167 -0.733487 0.20892 -2.03217e-16 0.0 -3.88251e-19 2.08204 -16.3466 0.52639 -0.265662 35.7038 0.673691 -3.19963 -17.0627 -7.12342 2.03217e-16 0.0 3.88251e-19 -4.67455 -13.6091 -4.46162 0.147794 29.0771 -0.472635 2.15722 -12.5369 5.5066
83.2987 83.3364 -57.0824 2.6121 -51.063 1.3527 -0.724214 6.49944 -0.621001 1.73815 -4.53908 -0.156942 -9.81613 -5.68816 -3.54552 10.6563 6.13032 -4.18608 -0.0 0.0 0.0 -0.0 0.0 0.0 7.52632e-14 8.00144e-14 4.30322e-14 78.6137 26.2033 -1.62452 -14.9469 -7.65736 27.5881 -0.0255859 4.5892 0.646319 -1.69042e-09 2.47744e-10 5.46785e-10 -2.92109e-09 4.33069e-10 9.54688e-10 -1.69042e-09 2.47749e-10 5.46779e-10 7.73091 5.47488 0.417314 -1.69043e-09 2.47749e-10 5.46791e-10 2.90554 0.965183 0.102902 -1.69042e-09 2.47749e-10 5.46789e-10 10.2786 0.731801 0.0259123 -1.69043e-09 2.47751e-10 5.46797e-10 2.22167 -0.733487 -0.20892 7.50672e-14 8e-14 4.28462e-14 -82.3247 27.0133 3.67992 15.6683 -8.28406 -29.1045 0.0323329 5.07023 -0.7145 -9.23174e-10 -5.75871e-10 -1.15796e-09 -1.60121e-09 -9.92879e-10 -1.99824e-09 -9.23181e-10 -5.75865e-10 -1.15794e-09 -7.73091 5.47488 -0.417314 -9.23173e-10 -5.7587e-10 -1.15795e-09 -2.90554 0.965183 -0.102902 -9.23175e-10 -5.7587e-10 -1.15796e-09 -10.2786 0.731801 -0.0259123 -9.23172e-10 -5.75868e-10 -1.15796e-09 -2.22167 -0.733487 0.20892 -2.03217e-16 0.0 -3.88251e-19 1.94377 -15.884 0.646161 -0.236858 34.4126 0.637773 -3.03321 -16.356 -6.8877 2.03217e-16 0.0 3.88251e-19 -4.61357 -13.2322 -4.2402 0.132682 28.0074 -0.448191 2.04619 -11.8422 5.3442
